# xmcd CD database file
#
# Track frame offsets:
#	150
#	14290
#	33815
#	54666
#	67926
#	85005
#	101603
#	119697
#	137746
#	151570
#	170126
#	185074
#	199441
#
# Disc length: 2838 seconds
#
# Revision: 0
# Processed by: cddbd v1.5.2PL0 Copyright (c) Steve Scherf et al.
# Submitted via: CDex 1.70beta2
#
DISCID=ae0b140d
DTITLE=Katie Lunette - Good Housewives and Peculiar People
DYEAR=2009
DGENRE=Jazz
TTITLE0=Until the down
TTITLE1=too foggy
TTITLE2=on the road again
TTITLE3=my friend
TTITLE4=old fashioned
TTITLE5=just in my head
TTITLE6=goin`down
TTITLE7=good housewives
TTITLE8=900 miles
TTITLE9=screw the rest
TTITLE10=kisses like poppyseed
TTITLE11=sane man
TTITLE12=creepin`in
EXTD=YEAR: 2009
EXTT0=
EXTT1=
EXTT2=
EXTT3=
EXTT4=
EXTT5=
EXTT6=
EXTT7=
EXTT8=
EXTT9=
EXTT10=
EXTT11=
EXTT12=
PLAYORDER=
